<?xml version="1.0" encoding="UTF-8"?>
<!DOCTYPE svg PUBLIC "-//W3C//DTD SVG 1.1//EN" "http://www.w3.org/Graphics/SVG/1.1/DTD/svg11.dtd">
<!-- Creator: CorelDRAW -->
<svg xmlns="http://www.w3.org/2000/svg" xml:space="preserve" width="17.747mm" height="24.8446mm" version="1.1" style="shape-rendering:geometricPrecision; text-rendering:geometricPrecision; image-rendering:optimizeQuality; fill-rule:evenodd; clip-rule:evenodd"
viewBox="0 0 1774.7 2484.46"
 xmlns:xlink="http://www.w3.org/1999/xlink"
 xmlns:xodm="http://www.corel.com/coreldraw/odm/2003">
 <defs>
  <style type="text/css">
   <![CDATA[
    .fil0 {fill:#1F4427}
   ]]>
  </style>
 </defs>
 <g id="Camada_x0020_1">
  <metadata id="CorelCorpID_0Corel-Layer"/>
  <path class="fil0" d="M852.73 2081.7l67.94 0 20.29 164.1c2.73,22.29 18.06,154.8 23.37,165.88l-150.42 0c0,-56.16 38.82,-256.15 38.82,-329.98zm72.79 -77.63l-77.65 0c-5.32,-22.87 -17.46,-44.63 -19.4,-67.94l121.31 0c-9.77,20.36 -14.5,47.58 -24.26,67.94zm-305.71 -271.74c21.53,-11.4 32.96,-23.16 53.38,-33.97 22.55,42.62 62.09,146.72 82.49,189.24l-67.94 48.53c-12.59,-54.08 -62.52,-161.61 -67.93,-203.8zm470.69 198.95c-29.76,-2.48 -42.08,-31.91 -67.93,-38.82 0.55,-24.62 27.36,-74.73 37.47,-98.4l40.17 -95.7c17.79,9.42 40.91,29.35 58.22,33.97l-34.61 96.4c-8.45,25.69 -31.1,75.81 -33.32,102.55zm-359.08 -344.53c50.68,24.32 165.59,31.89 233.68,20.18 25.98,-4.47 54.82,-13.49 76.87,-15.33 0,67.41 -8.47,64.4 -39.46,140.09l-52.73 131.65 -121.31 0 -82.37 -194.21c-15.05,-33.68 -14.68,-34.34 -14.68,-82.38zm77.64 -169.83c0,-35.98 71.61,-24.26 126.16,-24.26 30.24,0 30.24,53.38 0,53.38 -67.9,0 -126.16,12.72 -126.16,-29.12zm-402.76 -164.98l1.45 1.44c-0.09,-0.09 -1.93,-0.96 -1.45,-1.44zm-4.85 -9.71c0,-12.42 7.69,-0.78 2.88,0 -0.06,0.01 -2.88,13.55 -2.88,0zm1019.01 -72.78c-14.89,0 -29.11,-4.5 -29.11,-19.42l0 -329.96c0,-30.24 53.38,-30.24 53.38,0l0 325.11c0,11.31 -12.95,24.27 -24.27,24.27zm-1091.8 -33.98l0 -305.7c0,-45.56 58.23,-45.56 58.23,0l0 305.7c0,46.22 -58.23,46.22 -58.23,0zm558.04 402.76c-74.68,0 -210.2,-38.24 -242.62,-82.49l97.05 0c41.4,78.24 88.59,67.93 179.54,67.93 154.57,0 138.37,-208.66 14.55,-208.66 -65.16,0 -171.08,-14.88 -189.24,63.09 -43.69,0 -87.42,-0.22 -131.09,0.06 -65.41,0.42 -62.34,-2.73 -87.06,-43.95 -30.06,-50.15 -63.29,-124.25 -63.29,-203.59l0 -310.55c129.29,0 246.25,-29.88 354.25,-58.21 25.63,-6.72 48.02,-13.61 75.57,-21.47l225.26 -75.6c18.13,0 42.21,21.8 55.49,31.83l122.83 95.54c9.73,8.48 15.78,16.05 15.78,32.75l0 276.6c0,247 -189.33,436.72 -427.02,436.72zm-659.94 -543.47l0 -14.56c0,-30.73 11.8,-64.96 29.12,-77.64l0 160.13c-15.57,-11.41 -29.12,-40.9 -29.12,-67.93zm1295.61 63.08l0 -150.43c35.94,26.33 35.5,124.41 0,150.43zm-1125.77 -339.68c0,-116.57 23.2,-210.24 87.35,-300.84 49.59,-70.01 105.75,-120.01 184.25,-160.28 134.3,-68.87 308.01,-63.98 443.35,3.36 180.89,89.99 270.1,270.38 270.1,467.47l-25.15 12.86c-15.75,-9.44 -35.03,-24.74 -51.37,-38.24 -42.16,-34.85 -129.33,-110.49 -175.81,-110.49 -55.06,0 -123.63,32.33 -188.63,53.99 -108.4,36.13 -251.94,75.02 -365.93,90.21 -22.42,2.99 -134.33,17.82 -149.09,11.17 -10.62,-4.77 -29.07,-16.5 -29.07,-29.21zm82.49 -504.65c27.73,0 91.39,-59.94 177.41,-94.33 241.57,-96.6 522.46,-31.09 690.02,158.57 14.4,16.3 24.22,26.33 38.52,43.97 106.35,131.11 127.63,279.11 127.63,459.53 -22.05,-25.36 -21.68,-34.04 -58.24,-53.38 0,-140.14 -21.83,-232.41 -90.19,-336.82 -19.6,-29.94 -38.79,-56.89 -63.8,-81.78 -192.68,-191.71 -468.33,-238.06 -705.86,-96.74 -43.11,25.65 -88.5,59.32 -121.52,96.85 -7.84,8.91 -7.43,10.22 -14.88,19.08 -6.72,8 -9.03,9.32 -15.91,18.06 -33.4,42.39 -59.77,86.69 -80.4,137.97 -29.52,73.35 -42.91,143.94 -42.91,248.23 -12.58,2.93 -22.76,8.15 -31.93,16.59l-12.93 16.2c-0.59,0.8 -1.45,2.04 -2.03,2.81 -6.73,9 -2.25,3.19 -6.49,8.08 0,-158.79 11.35,-255.3 79.23,-381.75 8.66,-16.14 18.91,-33.6 29.54,-48.11 10.39,-14.18 27.1,-29.83 27.1,-50.54 0,-48.41 -49.26,-46.01 -70.95,-17.57 -117.48,154.12 -142.56,309.97 -142.56,507.67 0,19.12 0.83,39.72 0.36,58.59 -1.29,52.63 -82.9,115.78 -9.92,242.13 5.79,10.04 20.15,30.84 28.24,39.68 17.75,19.38 42.81,24.55 53.63,48.28 5.48,12.02 3.52,11.33 10.91,23.05 16.18,25.7 43.61,30.11 53.34,48.57 19.93,37.89 27.33,114.45 136.74,168.96 13.29,6.62 34.96,15.21 45.72,22.21 15.94,10.38 55.82,59.63 131.07,106.7 25.27,15.8 15.74,27.46 15.74,66.75 0,14.04 -33.5,29.99 -44.4,38.08 -15.76,11.7 -34.86,26.58 -52.54,34.81 -39.18,18.24 -92.47,26.96 -134.15,40.54 -79.25,25.81 -200.1,49.15 -257.09,92.27 -81.67,61.78 -92.29,141.84 -111.5,237.89 -10.24,51.22 -18.87,94.37 -29.11,145.57 -16.09,80.46 -53.42,177.5 13.55,244.45 21.63,21.62 49.35,39.83 91.18,39.83l363.94 0c39.13,0 39.75,-72.78 0,-72.78l-67.94 0 0 -164.99c0,-47.61 -72.78,-49.09 -72.78,-9.7l0 174.69 -208.66 0c-46.53,0 -73.08,-32.51 -69.3,-69.56 5.12,-50.11 60.73,-331.73 74.6,-376.43 25.14,-81.09 88.99,-109.18 165.56,-130.43l171.92 -51.3c18.28,-5.45 46.24,-11.07 59.98,-17.66 36.21,75.46 59.26,242.62 131.01,242.62 50.22,0 51.74,-20.9 82.49,-29.12 35.99,75.01 16.42,124.83 4.58,208.39 -7.42,52.38 -27.81,177.14 -28.84,223.49 -55.67,0 -116.46,-17.93 -116.46,43.66 0,11.69 17.43,29.12 29.12,29.12l999.6 0c72.84,0 126.17,-71.49 126.17,-140.72 0,-33.12 -9.69,-64.77 -15.76,-95.85 -5.14,-26.3 -9.51,-69.14 -42.48,-69.14 -114.52,0 79.06,232.93 -97.04,232.93l-194.1 0 0 -160.14c0,-55.23 -77.64,-56.34 -77.64,0l0 160.14 -310.55 0c0,-57.13 -13.19,-123.4 -21.46,-182.35 -4.38,-31.14 -8.77,-60.63 -12.11,-89.8 -15.62,-136.65 -15.84,-51.82 9.3,-159.73 9.33,2.5 90.13,69.98 138.83,-6.74l74.68 -206.76 298.95 89.24c41.06,16.46 79.83,57.6 94.84,99.26 15.84,43.89 8.14,131.76 67.2,131.76 67.93,0 1.65,-182.85 -35.33,-226.71 -45.98,-54.53 -88.55,-73.37 -166.43,-95.61l-246.84 -73.42c-34.95,-9.92 -53.83,-28.33 -83.24,-47.78 -43.29,-28.64 -35.9,-27.8 -35.9,-75.69 0,-16.43 26.3,-25.64 38.86,-33.92 104.85,-69.14 183.6,-167.84 213.46,-296.05 52.95,12.34 82.62,13.55 122.71,-27.72 18.78,-19.31 10.27,-14.09 21.33,-36.9 18.71,-38.62 108.29,-45.27 108.29,-202.27 0,-60.97 -34,-85.51 -38.47,-116.8 -7.31,-51.23 3.36,-177.39 -6.03,-256 -7.1,-59.32 -24.78,-113.39 -44.91,-163.75 -97.5,-243.81 -348.43,-433.94 -619.05,-433.94 -119.49,0 -227.72,16.66 -323.56,64.65 -39.14,19.59 -70.81,36.26 -104.22,60.75 -86.34,63.3 -10.3,88.11 -8.94,88.11z"/>
 </g>
</svg>
