<?xml version="1.0" encoding="UTF-8"?>
<!DOCTYPE svg PUBLIC "-//W3C//DTD SVG 1.1//EN" "http://www.w3.org/Graphics/SVG/1.1/DTD/svg11.dtd">
<!-- Creator: CorelDRAW -->
<svg xmlns="http://www.w3.org/2000/svg" xml:space="preserve" width="25.8538mm" height="16.0405mm" version="1.1" style="shape-rendering:geometricPrecision; text-rendering:geometricPrecision; image-rendering:optimizeQuality; fill-rule:evenodd; clip-rule:evenodd"
viewBox="0 0 2585.38 1604.05"
 xmlns:xlink="http://www.w3.org/1999/xlink"
 xmlns:xodm="http://www.corel.com/coreldraw/odm/2003">
 <defs>
  <style type="text/css">
   <![CDATA[
    .fil0 {fill:#1F4427}
   ]]>
  </style>
 </defs>
 <g id="Camada_x0020_1">
  <metadata id="CorelCorpID_0Corel-Layer"/>
  <g id="_1933167559968">
   <path class="fil0" d="M2166.27 1519.92c-173.63,0 -172.13,-262.58 0,-262.58 171,0 173.78,262.58 0,262.58zm-1247.25 -262.58c83.31,0 131.29,58.58 131.29,146.44 0,96.44 -138.63,161.77 -223.71,77.27 -50.21,-49.87 -46.48,-137.89 0.25,-184.59 17.15,-17.15 59.17,-39.12 92.17,-39.12zm1530.02 -166.63l55.55 0 0 100.99 -55.55 0 0 -100.99zm-85.84 -15.15c0,190.78 -14.49,201.98 141.39,201.98 0,82.63 6.56,70.69 -116.14,70.69 -17.78,0 -13.83,-10.48 -19.1,-26.35 -3.9,-11.79 -7.39,-21.72 -12.8,-32.64 -26.61,-53.68 -100.86,-112.69 -170.09,-112.69 -72.49,0 -111.02,3.59 -169.35,57.87 -12.75,11.86 -30.57,35.66 -39.38,51.51 -6.39,11.48 -10.12,18.91 -13.95,31.5 -12.02,39.42 15.05,30.8 -135.84,30.8l0 -984.66 444.37 0c48.41,0 62.86,56.16 79.07,92.61 21.83,49.1 153.21,348.07 153.21,377l0 176.73 -80.8 0c-28.52,0 -60.59,37.19 -60.59,65.65zm-2004.68 -949.32c0,88.02 -17.64,181.78 40.4,181.78 54.24,0 40.4,-75.09 40.39,-111.09 -0.01,-53.05 -7.4,-111.09 45.45,-111.09l1216.95 0c32.02,0 45.44,28.86 45.44,60.6l0 1201.79 -616.05 0c-3.55,-42.74 -38.52,-94.65 -64.38,-117.4 -149.3,-131.25 -352.03,-4 -354.73,117.4 -303.37,0 -272.68,28.81 -272.68,-156.53 0,-136.06 17.56,-176.74 -50.49,-176.74 -12.16,0 -30.3,18.14 -30.3,30.3l0 267.63c0,57.8 57.77,116.14 116.14,116.14l237.33 0c1.11,49.8 41.73,95.76 69.32,122.56 15.81,15.36 36.21,28.15 58.88,37.06 143.36,56.3 281.97,-52.1 290.91,-159.62l823.08 0c52.98,227.38 340.13,224.91 412.09,38.41 5.78,-14.99 6.27,-26.3 12.08,-38.41 45.08,0 109.09,8.44 144.63,-6.86 31.4,-13.52 62.4,-46.68 62.4,-89.08l0 -520.11c0,-29.51 -44.42,-125.87 -58.87,-158.26l-96.27 -226.91c-32.45,-75.74 -54.87,-150.09 -178.13,-150.09l-424.17 0c0,-117.41 17.59,-182.92 -41.48,-241.28 -22.17,-21.91 -52.87,-36.44 -94.85,-36.44l-1196.75 0c-73.48,0 -136.34,52.72 -136.34,126.24z"/>
   <path class="fil0" d="M1964.28 494.86l247.43 0c14.37,0 16.62,10.67 21.93,23.52l70.37 166.96c9.77,22.82 18.37,47.16 28.89,67.04l-368.62 0 0 -257.52zm-85.84 -40.4l0 338.32c0,24.43 15.97,40.4 40.4,40.4l474.66 0c81.45,0 15.91,-112.61 4.33,-140.67l-105.19 -248.29c-7.49,-16.87 -16.25,-30.16 -40.53,-30.16l-333.27 0c-24.43,0 -40.4,15.97 -40.4,40.4z"/>
   <path class="fil0" d="M116.14 888.72c0,24.96 20.49,45.45 45.45,45.45l696.84 0c58.97,0 62.83,-85.84 0,-85.84l-696.84 0c-22.52,0 -45.45,20.45 -45.45,40.39z"/>
   <path class="fil0" d="M-0 651.39c0,26.28 6.13,50.5 40.4,50.5l701.89 0c50.8,0 78.02,-85.84 -20.2,-85.84l-666.54 0c-24.3,0 -55.55,13.84 -55.55,35.34z"/>
   <path class="fil0" d="M191.88 429.21c0,24.43 15.97,40.4 40.4,40.4l706.94 0c54.2,0 54.2,-80.79 0,-80.79l-706.94 0c-24.43,0 -40.4,15.97 -40.4,40.39z"/>
   <path class="fil0" d="M2105.67 1388.63c0,81.35 121.19,77.5 121.19,0 0,-77.33 -121.19,-79.94 -121.19,0z"/>
   <path class="fil0" d="M919.02 1449.22c85.61,0 74.45,-121.18 5.05,-121.18 -86.33,0 -79.46,121.18 -5.05,121.18z"/>
  </g>
 </g>
</svg>
