<?xml version="1.0" encoding="UTF-8"?>
<!DOCTYPE svg PUBLIC "-//W3C//DTD SVG 1.1//EN" "http://www.w3.org/Graphics/SVG/1.1/DTD/svg11.dtd">
<!-- Creator: CorelDRAW -->
<svg xmlns="http://www.w3.org/2000/svg" xml:space="preserve" width="25.068mm" height="24.8446mm" version="1.1" style="shape-rendering:geometricPrecision; text-rendering:geometricPrecision; image-rendering:optimizeQuality; fill-rule:evenodd; clip-rule:evenodd"
viewBox="0 0 705.52 699.24"
 xmlns:xlink="http://www.w3.org/1999/xlink"
 xmlns:xodm="http://www.corel.com/coreldraw/odm/2003">
 <defs>
  <style type="text/css">
   <![CDATA[
    .fil0 {fill:#1F4427}
   ]]>
  </style>
 </defs>
 <g id="Camada_x0020_1">
  <metadata id="CorelCorpID_0Corel-Layer"/>
  <g id="_1933157354432">
   <path class="fil0" d="M330.76 364.78c7.25,-1.97 13.87,-5.36 22.01,-5.36 10.14,0 15.22,3.11 23.3,4.99l-22.89 23.69 -22.41 -23.33zm106.87 -60.27c-3.19,-13.67 -4.99,-2.52 -4.99,-28.29 0,-7.34 2.46,-11.85 4.99,-16.64 5.91,1.58 8.07,5.54 12.06,9.57 4.22,4.25 8.07,7.34 11.23,12.07 -4.72,3.16 -7.82,7.01 -12.07,11.22 -3.62,3.6 -8.36,9.97 -11.22,12.07zm176.38 -254.59l64.9 0 0 173.05 -64.9 0 0 -173.05zm-332.79 183.04c-33.59,0 -29.44,-50.7 1.35,-47.86 30.64,2.83 27.7,47.86 -1.35,47.86zm284.53 -159.74l23.3 0 0 126.46 -23.3 0 0 -126.46zm-462.98 63.63l21.63 -22.43c2.42,4.62 5.39,12.54 5.39,18.7l0 3.33c0,7.96 -2.44,16.31 -4.99,21.63l-22.03 -21.23zm38.67 -42l26.24 -25.34c9.96,3.14 32.79,20.03 65.1,8.53 5.94,-2.12 11.48,-6.73 16.81,-8.15l51.18 50.32c-11.58,17.72 -14.58,17.83 -14.58,41.2 -15.91,0 -28.35,1 -40.38,14.53 -17.76,19.98 -17.8,48.21 2.47,68.3 29.15,28.91 79.51,6.49 79.51,-29.59 6.47,3.1 13.9,5.91 21.15,8.8 7.86,3.13 13.47,5.58 21.15,8.8 7.86,3.3 13.72,5.24 21.4,8.56 7.65,3.3 14.52,6.85 22.83,8.79 -4.42,18.95 -6.66,6.32 -6.66,38.27 0,8.41 1.67,12.56 4.23,19.06 2.56,6.48 6.15,11.15 7.41,15.88l-24.56 25.36c-26.67,-14.5 -51.74,-19.51 -80.27,-0.4l-172.64 -171.8c20.83,-31.77 14.06,-53.79 -0.41,-81.12zm132.72 -34.55c40.04,-9.63 66.91,-35.34 118.54,-35.34 18.08,0 58.71,15.36 76.75,21.42l55.33 17.88c5.91,1.95 16.01,3.12 16.01,8.95l0 133.12c0,9.6 -36.71,33.28 -59.9,33.28 -27.36,0 -31.41,-1.36 -59.33,-13.88 -20.68,-9.27 -90.91,-33.47 -102.57,-45.53 -18.17,-18.79 -10.62,-53.74 25.45,-53.74 14.83,0 98.4,41.6 113.15,41.6 6.01,0 20.52,-15.43 -1.66,-24.96l-55.87 -22.34c-13.02,-5.21 -23.88,-9.66 -36.78,-14.8 -18.4,-7.34 -26.82,-3.42 -43.8,0.53l-45.32 -46.2zm-66.16 -30.35c5.1,3.42 20.12,17.66 21.63,23.3 -30.54,7.11 -12.72,7.11 -43.26,0 1.58,-5.91 5.54,-8.07 9.57,-12.07 4.26,-4.21 7.34,-8.07 12.07,-11.23zm-134.78 103.17c0,14.27 12.11,21.26 22.88,32.03l233.79 233.79c27.53,27.53 23.28,24.14 57.41,-9.99l91.52 -91.51c19.37,-19.15 8.72,-20.45 0.41,-32.87 48.22,0 77.58,-39.94 83.2,-39.94l26.62 0c0,15.43 2.7,23.3 18.31,23.3l83.19 0c11.87,0 14.98,-9.67 14.98,-21.63l0 -181.37c0,-12.92 -5.12,-19.97 -18.31,-19.97l-83.2 0c-12.6,0 -14.98,10.52 -14.98,23.3 -40.94,0 -29.44,2.1 -71.34,-11.86 -35.75,-11.92 -101.14,-36.4 -133.33,-36.4 -24.83,0 -48.48,11.23 -66.81,18.05 -10.96,4.08 -20.93,7.78 -31.35,11.92l-31.63 11.63c-2.49,-3.71 -38.3,-41.6 -43.26,-41.6 -11.98,0 -11.07,3.58 -22.88,15.39l-99.84 99.84c-3.61,3.61 -15.39,12.86 -15.39,17.89z"/>
   <path class="fil0" d="M24.96 477.56l64.89 0 0 171.38 -64.89 0 0 -171.38zm89.85 21.63l23.3 0 0 126.46 -23.3 0 0 -126.46zm121.47 39.94c0,9.37 0.44,11.8 9.43,15.53 6.19,2.57 10.59,4.12 16.72,6.58 11.25,4.5 21.3,8.54 32.1,12.83 38.57,15.33 69.56,37.94 105.14,8.64 2.99,-2.47 9.63,-11.37 11.63,-15 2.78,-5.04 6.2,-13.13 6.36,-20.26 22.56,-5.26 96.45,-34.94 111.49,-34.94 23.46,0 39.69,16.51 42.7,38.95 3.17,23.71 -14.44,39.06 -35.08,46.87l-178.38 67.88c-25.95,9.34 -40.23,11.97 -68.87,4.39l-94.2 -30.6c-8.28,-2.76 -23.89,-9.17 -32.24,-9.36l0 -138.11c0,-10.24 36.04,-33.28 59.9,-33.28 36.72,0 36.07,4.17 70.37,17.82l81.13 33.68c33.38,16.82 18.51,61.64 -13.39,61.64 -8.4,0 -24.45,-7.78 -32.33,-10.93l-63.93 -25.93c-2.65,-1.08 -12.41,-5.32 -15.91,-5.78 -5.67,-0.75 -12.63,4.13 -12.63,9.37zm-94.84 -63.23l-26.62 0c0,-10.24 0.93,-23.3 -13.31,-23.3l-89.85 0c-7.77,0 -11.65,3.88 -11.65,11.65l0 196.35c0,9.92 6.72,13.31 16.64,13.31l79.87 0c18.67,0 16.64,-10.86 16.64,-23.3 48.73,0 24.35,-1.76 71.19,12.01 13.13,3.86 26.53,8.63 40.09,13.16 12.88,4.31 27.57,8.63 40.36,12.89 60.43,20.14 77.23,9.28 138.6,-14.06l130.29 -49.43c6.81,-2.74 12.46,-4.5 19.28,-7.34 67.3,-28 50.87,-128.64 -25.47,-128.64 -16.5,0 -63.83,18.8 -84.65,25.17 -6.44,1.97 -22.26,7.59 -28.5,8.11 -1.65,-7.07 -7.5,-16.5 -12,-21.28 -12.6,-13.36 -93.85,-44.01 -116.6,-53.12 -38.25,-15.31 -67.72,-21.36 -107.71,-0.51 -6.99,3.64 -12.78,7.63 -18.7,12.91 -10.02,8.92 -13.59,15.41 -17.87,15.41z"/>
  </g>
 </g>
</svg>
