<?xml version="1.0" encoding="UTF-8"?>
<!DOCTYPE svg PUBLIC "-//W3C//DTD SVG 1.1//EN" "http://www.w3.org/Graphics/SVG/1.1/DTD/svg11.dtd">
<!-- Creator: CorelDRAW -->
<svg xmlns="http://www.w3.org/2000/svg" xml:space="preserve" width="91.44mm" height="162.56mm" version="1.1" style="shape-rendering:geometricPrecision; text-rendering:geometricPrecision; image-rendering:optimizeQuality; fill-rule:evenodd; clip-rule:evenodd"
viewBox="0 0 9144 16256"
 xmlns:xlink="http://www.w3.org/1999/xlink"
 xmlns:xodm="http://www.corel.com/coreldraw/odm/2003">
 <defs>
  <style type="text/css">
   <![CDATA[
    .fil0 {fill:#1F4427}
   ]]>
  </style>
 </defs>
 <g id="Camada_x0020_1">
  <metadata id="CorelCorpID_0Corel-Layer"/>
  <g id="_1933167572736">
   <path class="fil0" d="M4493.81 8181.87c25.75,-7 49.27,-19.05 78.19,-19.05 36.03,0 54.09,11.05 82.77,17.74l-81.34 84.19 -79.62 -82.88zm379.72 -214.16c-11.33,-48.58 -17.74,-8.97 -17.74,-100.5 0,-26.09 8.73,-42.12 17.74,-59.13 20.99,5.61 28.67,19.67 42.86,33.99 14.99,15.11 28.66,26.08 39.9,42.87 -16.77,11.23 -27.77,24.9 -42.88,39.88 -12.88,12.78 -29.72,35.44 -39.88,42.89zm626.69 -904.57l230.58 0 0 614.87 -230.58 0 0 -614.87zm-1182.44 650.35c-119.36,0 -104.61,-180.14 4.8,-170.04 108.87,10.04 98.43,170.04 -4.8,170.04zm1010.98 -567.58l82.78 0 0 449.33 -82.78 0 0 -449.33zm-1645.02 226.09l76.86 -79.7c8.61,16.4 19.16,44.55 19.16,66.46l0 11.82c0,28.27 -8.66,57.96 -17.74,76.86l-78.28 -75.44zm137.41 -149.22l93.25 -90.04c35.4,11.16 116.51,71.16 231.31,30.3 21.11,-7.52 40.79,-23.9 59.74,-28.96l181.86 178.78c-41.15,62.96 -51.8,63.35 -51.8,146.4 -56.54,0 -100.73,3.56 -143.47,51.64 -63.1,70.98 -63.23,171.3 8.77,242.69 103.59,102.72 282.51,23.07 282.51,-105.13 23,11.03 49.4,21 75.16,31.26 27.91,11.11 47.86,19.81 75.14,31.27 27.93,11.73 48.74,18.62 76.02,30.4 27.18,11.73 51.59,24.34 81.12,31.22 -15.69,67.33 -23.65,22.44 -23.65,135.98 0,29.87 5.94,44.64 15.04,67.73 9.09,23.03 21.85,39.62 26.34,56.43l-87.25 90.11c-94.76,-51.53 -183.83,-69.33 -285.22,-1.43l-613.42 -610.42c74,-112.9 49.94,-191.11 -1.45,-288.23zm471.57 -122.77c142.26,-34.21 237.74,-125.55 421.17,-125.55 64.24,0 208.6,54.57 272.69,76.12l196.61 63.54c20.99,6.92 56.89,11.08 56.89,31.79l0 472.98c0,34.12 -130.43,118.25 -212.83,118.25 -97.22,0 -111.59,-4.83 -210.82,-49.32 -73.49,-32.93 -323,-118.92 -364.43,-161.77 -64.55,-66.75 -37.74,-190.94 90.44,-190.94 52.69,0 349.64,147.8 402.03,147.8 21.36,0 72.92,-54.82 -5.89,-88.7l-198.51 -79.37c-46.26,-18.5 -84.86,-34.31 -130.7,-52.58 -65.38,-26.07 -95.28,-12.16 -155.61,1.89l-161.04 -164.14zm-235.08 -107.82c18.12,12.14 71.5,62.75 76.85,82.78 -108.52,25.28 -45.19,25.28 -153.72,0 5.61,-20.99 19.67,-28.68 33.99,-42.88 15.12,-14.97 26.09,-28.66 42.88,-39.9zm-478.9 366.57c0,50.72 43.04,75.55 81.29,113.8l830.68 830.68c97.83,97.83 82.73,85.76 203.97,-35.48l325.19 -325.16c68.84,-68.03 31,-72.67 1.46,-116.78 171.33,0 275.65,-141.9 295.62,-141.9l94.59 0c0,54.83 9.61,82.78 65.04,82.78l295.6 0c42.16,0 53.22,-34.35 53.22,-76.86l0 -644.43c0,-45.91 -18.18,-70.95 -65.04,-70.95l-295.61 0c-44.77,0 -53.21,37.39 -53.21,82.77 -145.45,0 -104.59,7.47 -253.48,-42.14 -127.04,-42.34 -359.35,-129.32 -473.73,-129.32 -88.23,0 -172.24,39.89 -237.38,64.14 -38.93,14.5 -74.38,27.63 -111.38,42.34l-112.39 41.33c-8.84,-13.19 -136.07,-147.81 -153.72,-147.81 -42.57,0 -39.33,12.72 -81.29,54.69l-354.74 354.73c-12.82,12.84 -54.69,45.69 -54.69,63.57z"/>
   <path class="fil0" d="M3407.3 8582.59l230.57 0 0 608.95 -230.57 0 0 -608.95zm319.25 76.85l82.78 0 0 449.33 -82.78 0 0 -449.33zm431.59 141.9c0,33.28 1.58,41.91 33.49,55.19 22,9.14 37.62,14.65 59.41,23.37 39.97,15.99 75.68,30.34 114.04,45.58 137.04,54.48 247.14,134.8 373.59,30.7 10.63,-8.76 34.22,-40.41 41.31,-53.29 9.86,-17.9 22.03,-46.66 22.59,-71.99 80.15,-18.68 342.69,-124.16 396.12,-124.16 83.37,0 141.04,58.65 151.72,138.41 11.28,84.26 -51.3,138.77 -124.65,166.54l-633.8 241.2c-92.2,33.17 -142.94,42.54 -244.7,15.59l-334.69 -108.73c-29.43,-9.81 -84.87,-32.58 -114.56,-33.24l0 -490.72c0,-36.37 128.06,-118.24 212.83,-118.24 130.48,0 128.16,14.82 250.02,63.33l288.26 119.68c118.62,59.77 65.78,219.02 -47.56,219.02 -29.83,0 -86.88,-27.66 -114.86,-38.85l-227.14 -92.13c-9.41,-3.83 -44.08,-18.89 -56.54,-20.54 -20.15,-2.67 -44.88,14.68 -44.88,33.28zm-336.99 -224.66l-94.6 0c0,-36.39 3.32,-82.78 -47.29,-82.78l-319.26 0c-27.6,0 -41.4,13.79 -41.4,41.39l0 697.64c0,35.24 23.87,47.3 59.13,47.3l283.79 0c66.33,0 59.12,-38.58 59.12,-82.78 173.13,0 86.51,-6.26 252.94,42.68 46.65,13.71 94.26,30.66 142.43,46.76 45.75,15.31 97.97,30.66 143.4,45.8 214.72,71.56 274.39,32.98 492.45,-49.96l462.92 -175.62c24.21,-9.74 44.26,-15.99 68.51,-26.07 239.14,-99.5 180.76,-457.07 -90.5,-457.07 -58.63,0 -226.79,66.79 -300.78,89.44 -22.89,7 -79.1,26.96 -101.25,28.81 -5.87,-25.13 -26.64,-58.64 -42.64,-75.61 -44.76,-47.47 -333.45,-156.39 -414.3,-188.74 -135.9,-54.39 -240.61,-75.9 -382.72,-1.82 -24.84,12.95 -45.41,27.12 -66.46,45.87 -35.61,31.7 -48.28,54.76 -63.49,54.76z"/>
  </g>
 </g>
</svg>
