<?xml version="1.0" encoding="UTF-8"?>
<!DOCTYPE svg PUBLIC "-//W3C//DTD SVG 1.1//EN" "http://www.w3.org/Graphics/SVG/1.1/DTD/svg11.dtd">
<!-- Creator: CorelDRAW -->
<svg xmlns="http://www.w3.org/2000/svg" xml:space="preserve" width="25.8538mm" height="24.845mm" version="1.1" style="shape-rendering:geometricPrecision; text-rendering:geometricPrecision; image-rendering:optimizeQuality; fill-rule:evenodd; clip-rule:evenodd"
viewBox="0 0 2585.38 2484.5"
 xmlns:xlink="http://www.w3.org/1999/xlink"
 xmlns:xodm="http://www.corel.com/coreldraw/odm/2003">
 <defs>
  <style type="text/css">
   <![CDATA[
    .fil0 {fill:#1F4427}
   ]]>
  </style>
 </defs>
 <g id="Camada_x0020_1">
  <metadata id="CorelCorpID_0Corel-Layer"/>
  <g id="_1933162094704">
   <path class="fil0" d="M499.91 1258.13l136.34 0 0 823.08 -136.34 0 0 -823.08zm419.11 792.78c0,-38.17 108.46,-16.03 187.03,-15.34 26.67,0.23 49.09,5.9 71.21,9.58l493.44 82.21c146.21,24.32 183.59,45.58 293.58,-162.29 16.27,4.34 44.01,25.94 60.31,35.64 43.56,25.89 156.91,96.36 197.22,105.75 -4.57,6.24 -57.3,54.22 -65.64,60.59 -14.09,10.75 -20.93,18.44 -34.02,31.63l-136.33 126.24c-22.15,22.27 -79.58,73.44 -110.4,81.5 -40.19,10.5 -75.46,5.07 -108.78,-6.38 -110.44,-37.95 -286.62,-92 -399.26,-120.84 -176.45,-45.19 -160.96,-49.1 -332.43,-46.7l-121.02 0.23c-55.8,-2.7 -158.27,-21.89 -186.79,-75.78 27.03,0 348.56,3.2 366.68,-1.93 38.84,-11 35.07,-63.52 0.75,-72.63 -10.33,-2.74 -46.39,-1.2 -59.41,-1.18 -39.59,0.06 -78.85,2.46 -111.09,-5.05 -2.64,-11.33 -5.05,-11.61 -5.05,-25.25zm-843.28 0l0 -767.53c0,-16.33 18.33,-25.25 35.35,-25.25l308.03 0 0 823.08c-67.5,0 -288.24,6.62 -338.33,-5.05 -2.63,-11.33 -5.05,-11.61 -5.05,-25.25zm767.54 15.15l0 15.15 -126.24 0 0 -823.08 308.02 0c17.02,0 35.35,8.92 35.35,25.25l0 671.59c-111.65,0 -147.44,-15.14 -195.84,36.44 -28.82,30.73 -21.29,51.74 -21.29,74.65zm1560.32 25.25c-19.71,-4.59 -39.87,-9 -56.72,-13.98 -21.63,-6.39 -37.36,-13.48 -55.16,-20.59 -35.59,-14.21 -67.15,-32.36 -101.91,-49.57l-190.18 -112.79c4.41,-18.93 100.99,-253.55 100.99,-282.78 0,-22.21 -19.74,-35.35 -45.45,-35.35 -31.02,0 -50.8,93.33 -62.72,124.11 -28.52,73.66 -132.23,365.7 -204.9,365.7 -29.23,0 -52.92,-6.29 -80.08,-10.81l-566.27 -95.23 0 -600.9 150.06 -92.92c32.08,-20.23 24.97,-5.68 27.69,10.62l16.24 90.3c11.63,57.13 8.77,98.04 53.44,98.04 38.07,0 98.07,-85.72 136.34,-95.94 0.52,23.34 25.51,106.18 33.21,133.42 13.41,47.35 34.69,183.75 106.05,61.39l108.17 -189.76c31.54,7.35 163.41,95.94 212.08,95.94 19.95,0 69.88,-86.48 87.93,-114.06l78.71 -128.32c21.03,4.9 34.39,16.4 53.81,26.98 18.79,10.24 32.46,18.97 50.18,30.62l102.05 64.58c92.74,57.99 158.99,88.75 145.35,178.65 -22.19,146.17 -28.97,430.45 -98.91,562.65zm-1014.97 -878.63c18.66,-1.55 84.78,-27.56 100.99,-35.35 0.74,33.29 10.1,61.23 10.1,101 0,6.89 -75.55,68.85 -85.84,75.74 -0.99,-44.51 -24.01,-96.5 -25.25,-141.39zm580.7 171.69c-47.87,-11.15 -100.43,-59.98 -146.43,-70.7l161.58 -181.78 106.04 55.55c-31.53,59.58 -90.21,138.39 -121.19,196.93zm-338.32 85.84c-17.96,-77.11 -47.05,-143.04 -56.46,-231.36 -12.56,-117.8 -23.2,-86.42 11.07,-172.55 5.67,-14.26 16.76,-41.06 20.14,-55.6 182.37,42.49 250.52,-25.48 292.88,-35.35 8.85,18.45 24.96,78.08 30.3,100.99 -21.72,32.43 -38,43.72 -59.4,66.85l-142.51 160.46 -96.02 166.56zm-201.98 -1025.06c11,5.28 24.39,6.07 36.06,9.39 38.17,10.86 67.97,30.89 99.33,52.15 87.88,59.59 29.56,59.72 142.33,59.65 65.65,-0.04 131.29,0 196.94,0 70.98,0 124.66,5.05 196.93,5.05 24.44,102.07 -85.68,106.84 -110.53,167.19 -36.07,87.6 -130.05,206.47 -242.94,206.47 -45.5,0 -96.48,4.53 -135.39,-16.09 -65.36,-34.65 -103.19,-75.16 -133.77,-154.06 -37.51,-96.83 -48.96,-197.42 -48.96,-329.75zm85.84 -55.55c54.23,-4.51 29.33,-10.1 121.19,-10.1 80.17,0 179.27,54.55 217.13,111.09l-161.94 0.36c-45.56,0 -20.07,-4.21 -105.63,-61 -10.9,-7.24 -21.89,-14.08 -34.34,-21.21 -8.26,-4.74 -9.7,-4.98 -16.99,-8.26l-19.42 -10.88zm-50.49 -65.64c16.03,-30.31 27.72,-55.65 46.41,-84.88l67.67 -83.81c2.77,-2.79 5.08,-4.76 7.85,-7.3 6.9,-6.33 11.49,-10.8 18.69,-16.66 13.41,-10.92 22.46,-17.72 39.36,-26.29 141.63,-71.79 446.16,-28.1 446.16,259.33l0 85.85c0,25.38 -4.54,22.61 -5.05,45.44 -26.02,-12.48 -99.46,-5.05 -136.34,-5.05 -7.6,-14.37 -15.71,-25.88 -26.78,-38.85 -6.08,-7.13 -8.67,-8.98 -14.32,-15.99 -6.91,-8.57 -6.98,-10.64 -15.54,-19.8 -11.99,-12.82 -21.84,-17.78 -35.53,-30.12 -77.36,-69.72 -200.57,-100.92 -318.28,-78.46 -26.35,5.03 -50.32,14.59 -74.3,16.59zm-232.28 196.93c0,21.61 15.56,40.4 35.34,40.4 47.24,0 39.01,-59.53 85.84,-90.89 0,147.66 33.75,387.11 154.26,481.99 14.46,11.38 10.36,13.33 27.53,17.91 -0.75,33.62 -37.85,95.61 -40.4,126.24 -27.29,2.27 -165.09,56.97 -190.31,72.27 -28.82,17.49 -55.71,31.29 -82.36,48.92l-85.85 50.5c-2.08,-25.06 -19.77,-51.74 -37.33,-63.66 -22.12,-15.02 -48.92,-22.18 -83.86,-22.18l-888.72 0c-36.95,0 -65.42,7.23 -86.81,24.28 -20.44,16.29 -39.43,41.61 -39.43,76.71l0 772.58c0,54.61 39.72,93.3 86.94,99.9l559.41 1.09c9.08,109.14 209.27,151.49 313.07,151.49 21.83,0 44.08,0.47 65.84,0.2 28.05,-0.35 32.15,-5.1 60.2,-5.45 54.2,-0.67 79.42,1.26 121.86,9.83 126.86,25.6 379.74,102.89 510.21,146.23 99.46,33.04 183.63,45.65 278.29,-38.49l182.03 -171.43c13.21,-11.03 17.33,-12.47 30.15,-25.4 130.87,-131.96 67.49,-56.88 220.84,-56.88 74.15,0 108.56,-230.49 116.99,-292.02 15.21,-111.02 39.55,-271.72 39.55,-384.62 0,-69.01 -38.36,-102.34 -79.3,-132.79 -70.04,-52.08 -123.71,-84.22 -194.36,-128.81l-304.84 -174.86c-9.8,-9.71 -36.7,-106.59 -39.85,-122.36 -6.21,-31.13 37.57,-46.41 79.79,-131.23 22.97,-46.14 17.05,-28.96 52.33,-58.75 136.47,-115.22 64.09,-202.9 61.84,-225.95l5.27 -80.61c0,-132.67 -5.87,-235.1 -104.75,-334.56 -114.31,-114.99 -359.4,-135.03 -487.59,-40.66 -92.87,68.37 -150.01,165.73 -192.51,272.05 -22.39,56 0.34,35.05 -45.02,55.98 -56.91,26.26 -104.29,107.69 -104.29,133.03z"/>
   <path class="fil0" d="M1555.27 1677.24c0,29.69 -8.63,80.8 35.35,80.8 46.94,0 40.39,-44.96 40.39,-75.75 0,-60.53 -75.74,-39.12 -75.74,-5.05z"/>
   <path class="fil0" d="M1575.47 1914.57c52.29,0 56.49,-116.14 5.04,-116.14 -57.65,0 -58.12,116.14 -5.04,116.14z"/>
  </g>
 </g>
</svg>
